<svg xmlns="http://www.w3.org/2000/svg" xmlns:xlink="http://www.w3.org/1999/xlink" viewBox="0 0 100 125" version="1.1" x="0px" y="0px"><title>18</title><desc>Created with Sketch.</desc><g stroke="none" stroke-width="2" fill="none" fill-rule="evenodd"><g fill="#000000"><path d="M52.7214441,81.6931238 L52.7214441,73.9644401 L64.8403352,65.2966601 C65.7264613,64.6628684 65.9279255,63.435167 65.2899226,62.5544204 C64.6525129,61.6740668 63.417235,61.4738703 62.5303181,62.1076621 L52.7214441,69.1233792 L52.7214441,62.3711198 L52.7214441,62.3669941 L52.7214441,50.9455796 L60.7070573,45.2341847 C61.5931834,44.6003929 61.7946476,43.3726916 61.1566447,42.491945 C60.5190372,41.6117878 59.2837593,41.4113949 58.3970401,42.0451866 L52.7214441,46.1045187 L52.7214441,34.8090373 C52.7214441,33.7239686 51.8361089,32.8444008 50.7443668,32.8444008 C49.6526246,32.8444008 48.7672894,33.7239686 48.7672894,34.8090373 L48.7672894,58.4750491 L39.116384,51.5726916 C38.2302579,50.9387033 36.9945845,51.1388998 36.3567794,52.0194499 C35.7187765,52.9001965 35.9202407,54.1278978 36.8063668,54.7616896 L48.7672894,63.31611 L48.7672894,81.7314342 C32.7324011,80.8654224 19.9541547,67.629666 19.9541547,51.4833006 C19.9541547,45.9821218 23.577149,37.6469548 30.4314785,27.3791749 C36.2023696,18.7337917 42.9987708,10.5341847 47.6840487,5.17819253 C48.3782006,4.38447937 49.3829513,3.92927308 50.44049,3.92927308 C51.4980287,3.92927308 52.5027794,4.38447937 53.1969312,5.17819253 C57.8820115,10.5341847 64.6784126,18.7335953 70.4495014,27.3791749 C77.3036332,37.6469548 80.9266275,45.9821218 80.9266275,51.4833006 C80.9266275,67.4251473 68.4702493,80.5300589 52.7214441,81.6931238 M84.8807822,51.4833006 C84.8807822,45.1174853 81.1340229,36.2768173 73.7444986,25.2070727 C67.8559713,16.3854617 60.9433181,8.04440079 56.1811318,2.60039293 C54.7356905,0.947740668 52.6431519,0 50.44049,0 C48.2378281,0 46.1452894,0.947740668 44.6998481,2.60039293 C39.9376619,8.04440079 33.0248109,16.3856582 27.1362837,25.2070727 C19.7467593,36.2768173 16,45.1174853 16,51.4833006 C16,69.7968566 30.550894,84.7956778 48.7672894,85.6660118 L48.7672894,97.9848723 C48.7672894,99.0699411 49.6526246,99.9495088 50.7443668,99.9495088 C51.8361089,99.9495088 52.7214441,99.0699411 52.7214441,97.9848723 L52.7214441,85.6300589 C70.6523496,84.4591356 84.8807822,69.5925344 84.8807822,51.4833006"/></g></g><text x="0" y="115" fill="#000000" font-size="5px" font-weight="bold" font-family="'Helvetica Neue', Helvetica, Arial-Unicode, Arial, Sans-serif">Created by AomAm</text><text x="0" y="120" fill="#000000" font-size="5px" font-weight="bold" font-family="'Helvetica Neue', Helvetica, Arial-Unicode, Arial, Sans-serif">from the Noun Project</text></svg>
