<svg xmlns="http://www.w3.org/2000/svg" xmlns:xlink="http://www.w3.org/1999/xlink" xml:space="preserve" version="1.1" style="shape-rendering:geometricPrecision;text-rendering:geometricPrecision;image-rendering:optimizeQuality;" viewBox="0 0 156 245" x="0px" y="0px" fill-rule="evenodd" clip-rule="evenodd"><defs><style type="text/css">
   
    .fil0 {fill:black;fill-rule:nonzero}
   
  </style></defs><g><path class="fil0" d="M121 115c-10,11 -23,18 -38,19l0 62 -10 0 0 -61c-14,-2 -28,-9 -38,-20 -3,1 -6,1 -9,1 -29,-2 -36,-41 -10,-53 -17,-24 9,-54 35,-42 7,-28 47,-28 54,0 3,-1 7,-2 11,-3 17,-1 32,15 28,34 0,4 -2,8 -5,11 21,8 25,41 -1,51 -5,2 -11,3 -17,1zm-52 -72l11 33 2 0 26 -16 4 5 -29 18 0 45c15,-2 26,-9 35,-21 7,2 11,3 18,1 8,-3 12,-10 13,-17 2,-16 -10,-22 -23,-25 9,-8 16,-16 10,-29 -5,-10 -17,-15 -27,-10 -4,2 -7,5 -10,7l0 -7c-1,-24 -35,-28 -41,-5 -1,4 -1,8 -1,12 -29,-23 -48,7 -36,24 0,1 9,8 9,9 -35,5 -25,41 -4,42 5,0 7,0 12,-2 9,12 20,19 35,21l0 -20 -29 -20 4 -5 25 17 0 -24 -10 -30 6 -3z"/></g><text x="0" y="211" fill="#000000" font-size="5px" font-weight="bold" font-family="'Helvetica Neue', Helvetica, Arial-Unicode, Arial, Sans-serif">Created by ani</text><text x="0" y="216" fill="#000000" font-size="5px" font-weight="bold" font-family="'Helvetica Neue', Helvetica, Arial-Unicode, Arial, Sans-serif">from the Noun Project</text></svg>