<svg xmlns="http://www.w3.org/2000/svg" data-name="Layer 1" viewBox="0 0 100 125" x="0px" y="0px"><title>Artboard 464</title><path d="M6,54A20,20,0,0,0,26,74H46V94a4,4,0,0,0,8,0V74H74A20,20,0,0,0,94,54a19.76,19.76,0,0,0-8.38-16.22A19.46,19.46,0,0,0,86,34,20,20,0,0,0,68.34,14.13a19.93,19.93,0,0,0-36.68,0A20,20,0,0,0,14,34a19.46,19.46,0,0,0,.38,3.78A19.76,19.76,0,0,0,6,54ZM20.82,43.24a4,4,0,0,0,2-5A11.91,11.91,0,0,1,33.72,22c.15,0,.56.06.7.06a3.93,3.93,0,0,0,4-3,11.94,11.94,0,0,1,23.16,0,4,4,0,0,0,4,3c.24,0,.47,0,.42-.05A11.9,11.9,0,0,1,77.19,38.22a4,4,0,0,0,2,5A12,12,0,0,1,74,66H54V56.26L67.74,49.6a4,4,0,0,0-3.48-7.2L54,47.37V30a4,4,0,0,0-8,0V51.45l-10.23-5a4,4,0,1,0-3.54,7.18L46,60.36V66H26A12,12,0,0,1,14,54,11.88,11.88,0,0,1,20.82,43.24Z"/><text x="0" y="115" fill="#000000" font-size="5px" font-weight="bold" font-family="'Helvetica Neue', Helvetica, Arial-Unicode, Arial, Sans-serif">Created by Gregor Cresnar</text><text x="0" y="120" fill="#000000" font-size="5px" font-weight="bold" font-family="'Helvetica Neue', Helvetica, Arial-Unicode, Arial, Sans-serif">from the Noun Project</text></svg>