<?xml version="1.0" encoding="UTF-8" standalone="no"?>
<svg
   xmlns:dc="http://purl.org/dc/elements/1.1/"
   xmlns:cc="http://creativecommons.org/ns#"
   xmlns:rdf="http://www.w3.org/1999/02/22-rdf-syntax-ns#"
   xmlns:svg="http://www.w3.org/2000/svg"
   xmlns="http://www.w3.org/2000/svg"
   xmlns:sodipodi="http://sodipodi.sourceforge.net/DTD/sodipodi-0.dtd"
   xmlns:inkscape="http://www.inkscape.org/namespaces/inkscape"
   viewBox="0 0 100 100"
   version="1.1"
   x="0px"
   y="0px"
   id="svg4559"
   sodipodi:docname="tree.svg"
   width="100"
   height="100"
   inkscape:version="0.92.2 5c3e80d, 2017-08-06"
   inkscape:export-filename="/Users/steve/work/trees/assets/tree@2x.png"
   inkscape:export-xdpi="46.080002"
   inkscape:export-ydpi="46.080002">
  <metadata
     id="metadata4565">
    <rdf:RDF>
      <cc:Work
         rdf:about="">
        <dc:format>image/svg+xml</dc:format>
        <dc:type
           rdf:resource="http://purl.org/dc/dcmitype/StillImage" />
        <dc:title>18</dc:title>
      </cc:Work>
    </rdf:RDF>
  </metadata>
  <defs
     id="defs4563" />
  <sodipodi:namedview
     pagecolor="#ffffff"
     bordercolor="#666666"
     borderopacity="1"
     objecttolerance="10"
     gridtolerance="10"
     guidetolerance="10"
     inkscape:pageopacity="0"
     inkscape:pageshadow="2"
     inkscape:window-width="1276"
     inkscape:window-height="751"
     id="namedview4561"
     showgrid="false"
     inkscape:zoom="1.888"
     inkscape:cx="18.220339"
     inkscape:cy="62.5"
     inkscape:window-x="0"
     inkscape:window-y="0"
     inkscape:window-maximized="0"
     inkscape:current-layer="g4551" />
  <title
     id="title4545">18</title>
  <desc
     id="desc4547">Created with Sketch.</desc>
  <g
     id="g4553"
     style="opacity:1;fill:none;fill-rule:evenodd;stroke:none;stroke-width:2"
     transform="translate(-1.059322,-0.1059322)">
    <g
       id="g4551"
       style="fill:#000000">
      <path
         d="M 52.721444,81.693124 V 73.96444 l 12.118891,-8.66778 c 0.886126,-0.633792 1.08759,-1.861493 0.449588,-2.74224 -0.63741,-0.880353 -1.872688,-1.08055 -2.759605,-0.446758 l -9.808874,7.015717 V 62.37112 62.366994 50.94558 l 7.985613,-5.711395 c 0.886126,-0.633792 1.087591,-1.861493 0.449588,-2.74224 -0.637608,-0.880157 -1.872886,-1.08055 -2.759605,-0.446758 l -5.675596,4.059332 V 34.809037 c 0,-1.085068 -0.885335,-1.964636 -1.977077,-1.964636 -1.091742,0 -1.977078,0.879568 -1.977078,1.964636 v 23.666012 l -9.650905,-6.902357 c -0.886126,-0.633989 -2.121799,-0.433792 -2.759605,0.446758 -0.638003,0.880746 -0.436538,2.108448 0.449588,2.74224 l 11.960922,8.55442 V 81.731434 C 32.732401,80.865422 19.954155,67.629666 19.954155,51.483301 c 0,-5.501179 3.622994,-13.836346 10.477323,-24.104126 5.770892,-8.645383 12.567293,-16.84499 17.252571,-22.2009825 0.694152,-0.7937131 1.698902,-1.2489194 2.756441,-1.2489194 1.057539,0 2.062289,0.4552063 2.756441,1.2489194 4.68508,5.3559925 11.481482,13.5554025 17.25257,22.2009825 6.854132,10.26778 10.477126,18.602947 10.477126,24.104126 0,15.941846 -12.456378,29.046758 -28.205183,30.209823 M 84.880782,51.483301 c 0,-6.365816 -3.746759,-15.206484 -11.136283,-26.276228 C 67.855971,16.385462 60.943318,8.0444008 56.181132,2.6003929 54.73569,0.94774067 52.643152,0 50.44049,0 48.237828,0 46.145289,0.94774067 44.699848,2.6003929 39.937662,8.0444008 33.024811,16.385658 27.136284,25.207073 19.746759,36.276817 16,45.117485 16,51.483301 16,69.796857 30.550894,84.795678 48.767289,85.666012 v 12.31886 c 0,1.085069 0.885336,1.964637 1.977078,1.964637 1.091742,0 1.977077,-0.879568 1.977077,-1.964637 V 85.630059 C 70.65235,84.459136 84.880782,69.592534 84.880782,51.483301"
         id="path4549"
         inkscape:connector-curvature="0"
         style="stroke-width:2;stroke-miterlimit:4;stroke-dasharray:none;stroke:#000000;stroke-opacity:1" />
    </g>
  </g>
</svg>
