<?xml version="1.0" encoding="UTF-8" standalone="no"?>
<svg
   xmlns:dc="http://purl.org/dc/elements/1.1/"
   xmlns:cc="http://creativecommons.org/ns#"
   xmlns:rdf="http://www.w3.org/1999/02/22-rdf-syntax-ns#"
   xmlns:svg="http://www.w3.org/2000/svg"
   xmlns="http://www.w3.org/2000/svg"
   xmlns:sodipodi="http://sodipodi.sourceforge.net/DTD/sodipodi-0.dtd"
   xmlns:inkscape="http://www.inkscape.org/namespaces/inkscape"
   width="128"
   height="128"
   stroke-miterlimit="10"
   style="shape-rendering:geometricPrecision; fill-rule:evenodd"
   version="1.1"
   id="svg4"
   sodipodi:docname="wikipedia.svg"
   inkscape:version="0.92.2 5c3e80d, 2017-08-06"
   inkscape:export-filename="/Users/steve/work/trees/assets/wikipedia@2x.png"
   inkscape:export-xdpi="192"
   inkscape:export-ydpi="192">
  <metadata
     id="metadata10">
    <rdf:RDF>
      <cc:Work
         rdf:about="">
        <dc:format>image/svg+xml</dc:format>
        <dc:type
           rdf:resource="http://purl.org/dc/dcmitype/StillImage" />
        <dc:title />
      </cc:Work>
    </rdf:RDF>
  </metadata>
  <defs
     id="defs8" />
  <sodipodi:namedview
     pagecolor="#ffffff"
     bordercolor="#666666"
     borderopacity="1"
     objecttolerance="10"
     gridtolerance="10"
     guidetolerance="10"
     inkscape:pageopacity="0"
     inkscape:pageshadow="2"
     inkscape:window-width="1015"
     inkscape:window-height="709"
     id="namedview6"
     showgrid="false"
     inkscape:zoom="2"
     inkscape:cx="50.983051"
     inkscape:cy="64"
     inkscape:window-x="0"
     inkscape:window-y="0"
     inkscape:window-maximized="0"
     inkscape:current-layer="svg4" />
  <rect
     style="opacity:0.95;fill:none;fill-opacity:1;stroke:#606060;stroke-width:4;stroke-linejoin:round;stroke-miterlimit:4;stroke-dasharray:none;stroke-opacity:1"
     id="rect4506"
     width="126.75822"
     height="126.75823"
     x="0.62088567"
     y="0.62088567"
     ry="27.060745"
     inkscape:export-filename="/Users/steve/work/trees/assets/rect4506.png"
     inkscape:export-xdpi="192"
     inkscape:export-ydpi="192" />
  <path
     inkscape:connector-curvature="0"
     style="fill-rule:evenodd;stroke-width:0.92844683;shape-rendering:geometricPrecision"
     d="m 116.7822,31.699333 c 0,0.380663 -0.1207,0.724188 -0.35281,1.03986 -0.2414,0.306388 -0.49208,0.464224 -0.7799,0.464224 -2.31183,0.222827 -4.21515,0.965584 -5.68209,2.237556 -1.47623,1.262688 -2.9896,3.685934 -4.55868,7.25117 L 81.454796,96.672046 c -0.157836,0.501361 -0.594206,0.752042 -1.318394,0.752042 -0.566353,0 -1.002723,-0.250681 -1.318395,-0.752042 L 65.383381,68.577242 49.934026,96.672046 c -0.315672,0.501361 -0.752042,0.752042 -1.318395,0.752042 -0.68705,0 -1.141989,-0.250681 -1.364817,-0.752042 L 23.714691,42.692143 c -1.466946,-3.351693 -3.017453,-5.691379 -4.651519,-7.019058 -1.624782,-1.327679 -3.899477,-2.153996 -6.805516,-2.469668 -0.25068,0 -0.492077,-0.129983 -0.705619,-0.399233 -0.222828,-0.259965 -0.334241,-0.566352 -0.334241,-0.909877 0,-0.882025 0.25068,-1.318395 0.752042,-1.318395 2.09829,0 4.289424,0.09284 6.582688,0.278534 2.126143,0.194974 4.131589,0.287819 6.007051,0.287819 1.912601,0 4.168727,-0.09285 6.768378,-0.287819 2.720345,-0.185689 5.134307,-0.278534 7.232597,-0.278534 0.501361,0 0.752042,0.43637 0.752042,1.318395 0,0.87274 -0.157836,1.30911 -0.464224,1.30911 -2.098289,0.157836 -3.750925,0.696335 -4.957906,1.596928 -1.206977,0.909878 -1.810467,2.09829 -1.810467,3.574521 0,0.752041 0.25068,1.689773 0.752042,2.813193 L 52.282996,85.11288 63.322229,64.259964 53.035038,42.692143 c -1.847609,-3.84377 -3.370262,-6.332007 -4.558674,-7.446143 -1.188412,-1.104852 -2.989599,-1.791903 -5.40356,-2.042583 -0.222828,0 -0.427086,-0.129983 -0.631344,-0.399233 -0.204259,-0.259965 -0.306388,-0.566352 -0.306388,-0.909877 0,-0.882025 0.213543,-1.318395 0.659198,-1.318395 2.098289,0 4.020174,0.09284 5.774939,0.278534 1.689773,0.194974 3.49096,0.287819 5.403561,0.287819 1.875462,0 3.862339,-0.09285 5.960628,-0.287819 2.163282,-0.185689 4.289425,-0.278534 6.387715,-0.278534 0.501361,0 0.752042,0.43637 0.752042,1.318395 0,0.87274 -0.148552,1.30911 -0.464224,1.30911 -4.19658,0.287818 -6.294869,1.47623 -6.294869,3.57452 0,0.937731 0.482792,2.395393 1.457661,4.3637 l 6.805516,13.815289 6.768377,-12.636161 c 0.937731,-1.782618 1.411239,-3.286702 1.411239,-4.512252 0,-2.878185 -2.09829,-4.410123 -6.294869,-4.605096 -0.380664,0 -0.566353,-0.43637 -0.566353,-1.30911 0,-0.315672 0.09284,-0.612775 0.278534,-0.891309 0.194974,-0.287819 0.380663,-0.427086 0.566353,-0.427086 1.504084,0 3.351693,0.09284 5.542827,0.278534 2.09829,0.194974 3.825201,0.287819 5.171449,0.287819 0.965585,0 2.395393,-0.08356 4.270856,-0.241397 2.376824,-0.213542 4.372984,-0.324956 5.969913,-0.324956 0.371379,0 0.557068,0.371379 0.557068,1.123421 0,1.002722 -0.343525,1.504084 -1.030576,1.504084 -2.441815,0.25068 -4.410122,0.928446 -5.895637,2.024014 -1.485515,1.095567 -3.342409,3.583805 -5.561397,7.464712 l -9.024503,16.68419 12.21836,24.89166 18.03972,-41.947228 c 0.62206,-1.531938 0.93774,-2.943177 0.93774,-4.224434 0,-3.073159 -2.098294,-4.697941 -6.294876,-4.892914 -0.380663,0 -0.566352,-0.43637 -0.566352,-1.30911 0,-0.882025 0.278534,-1.318395 0.844886,-1.318395 1.531938,0 3.351695,0.09284 5.449982,0.278534 1.94046,0.194974 3.57452,0.287819 4.88363,0.287819 1.38339,0 2.98031,-0.09285 4.79079,-0.287819 1.88474,-0.185689 3.57452,-0.278534 5.0786,-0.278534 0.43637,0 0.6592,0.371379 0.6592,1.123421 z"
     id="path826" />
</svg>
